# xmcd CD database file generated by GCD 2.95
# 
# Track frame offsets:
#       150
#       12905
#       27264
#       35390
#       48199
#       58063
#       74977
#       84695
#       98941
#       105761
#       122574
#       136263
#       149034
#       160617
#       161267
#       174162
#       188739
# 
# Disc length: 2721 seconds
# 
# Revision: 3
# Processed by: cddbd v1.5PL3 Copyright (c) Steve Scherf et al.
# Submitted via: GCD 2.95
# 
DISCID=dc0a9f11
DTITLE=Wayne Hancock - KUT Radio
DYEAR=1900
DGENRE=
TTITLE0=Any Old Time
TTITLE1=Oklahoma Hills
TTITLE2=No Lovin' Tonight
TTITLE3=Workin' at Workin'
TTITLE4=Walkin' the Dog
TTITLE5=Thunderstorms and Neon Signs
TTITLE6=It Don't Hurt Anymore
TTITLE7=California Blues
TTITLE8=band introduction
TTITLE9=HIghway 54
TTITLE10=Railroad Blues
TTITLE11=Any Time
TTITLE12=Poor Boy Blues
TTITLE13="talk"
TTITLE14=Lovesick Blues
TTITLE15=87 Southbound
TTITLE16=It's All Over Now
EXTD=
EXTT0=
EXTT1=
EXTT2=
EXTT3=
EXTT4=
EXTT5=
EXTT6=
EXTT7=
EXTT8=
EXTT9=
EXTT10=
EXTT11=
EXTT12=
EXTT13=
EXTT14=
EXTT15=
EXTT16=
PLAYORDER=
